# Blender 3.4.0
# www.blender.org
mtllib dead_tree_rt_1.mtl
o dead_tree_rt_1
v 0.152072 0.000003 -0.182859
v -0.126164 0.000003 -0.180851
v -0.160396 0.000003 -0.184894
v -0.204343 0.000003 -0.164544
v -0.232848 0.000003 -0.105685
v -0.234473 0.000003 -0.052861
v -0.207944 0.000003 0.026278
v -0.177217 0.000003 0.054900
v -0.198645 0.000003 0.128598
v -0.186369 0.000003 0.169600
v -0.159131 0.000003 0.213164
v -0.069653 0.000003 0.210694
v 0.026995 0.000003 0.246224
v 0.090847 0.000003 0.192030
v 0.171584 0.000003 0.197282
v 0.214547 0.000003 0.163716
v 0.250245 0.000003 0.060927
v 0.265201 0.000003 -0.028288
v -0.178522 0.018518 -0.143552
v -0.204880 0.021674 -0.041237
v -0.180458 0.010943 0.118147
v -0.134702 0.018512 0.180095
v 0.028295 0.015764 0.202769
v 0.137473 0.027011 0.163367
v 0.130863 0.026085 -0.167132
v -0.024781 0.000003 -0.212894
v -0.024859 0.047861 -0.171845
v -0.175855 0.042151 0.037791
v -0.037757 0.031764 0.191400
v 0.163056 0.038159 0.130977
v 0.195142 0.047406 -0.020867
v -0.139952 0.050476 -0.130019
v -0.155731 0.067249 0.090582
v 0.032787 0.061885 0.184028
v -0.174199 0.078195 -0.038274
v -0.103645 0.104607 0.142209
v 0.167060 0.111144 0.033719
v 0.151648 0.113624 -0.071582
v 0.099766 0.107688 -0.134558
v -0.000193 0.106930 -0.159117
v -0.065441 0.106930 -0.155923
v -0.140814 0.116214 -0.099091
v -0.072292 0.590055 -0.099236
v -0.075926 0.590055 0.076887
v 0.136482 0.590055 -0.015174
v -0.007095 0.590055 0.131642
v 0.074662 0.590055 0.119380
v 0.083640 0.590055 -0.103174
v 0.008636 0.590055 -0.124885
v 0.131747 0.590055 0.055753
v -0.103510 0.590055 -0.005356
v -0.046184 1.070055 -0.107344
v -0.074240 1.070055 0.065564
v 0.134292 1.070055 -0.024817
v 0.073600 1.070055 0.086931
v 0.066101 1.070055 -0.111211
v -0.034868 2.510055 -0.065960
v -0.036970 2.510055 0.035918
v 0.085898 2.510055 -0.017335
v 0.037198 2.510055 0.041352
v 0.055331 2.510055 -0.068239
v -0.052926 2.510055 -0.011655
v -0.006470 3.470055 -0.027236
v -0.007409 3.470055 0.012405
v 0.031529 3.470055 0.023392
v 0.033850 3.470055 -0.034155
v 0.046289 3.470055 -0.005607
v 0.016486 4.190055 -0.006603
v -0.111248 1.070055 -0.020890
v -2.019960 0.874394 0.043454
v 1.946153 0.874394 0.043454
v -2.019960 6.240393 0.043453
v 1.946153 6.240393 0.043453
v -0.005004 0.518999 -2.023052
v -0.005003 0.518999 1.943061
v -0.005003 5.884997 -2.023052
v -0.005003 5.884997 1.943061
v -1.376254 1.216005 1.456080
v 1.428212 1.216005 -1.348386
v -1.376253 6.582004 1.456081
v 1.428213 6.582004 -1.348385
v 1.420463 1.041380 1.415978
v -1.384002 1.041381 -1.388488
v 1.420464 6.407379 1.415978
v -1.384002 6.407379 -1.388488
vn -0.5616 0.4923 -0.6650
vn -0.0871 0.4715 -0.8776
vn -0.1909 0.7240 -0.6629
vn -0.2036 0.9205 0.3336
vn -0.1147 0.6305 0.7677
vn -0.3402 0.7715 0.5377
vn -0.8727 0.3658 0.3235
vn -0.8944 0.3918 0.2159
vn -0.7809 0.5046 0.3683
vn 0.4062 0.5953 -0.6932
vn 0.5339 0.2277 -0.8143
vn 0.8971 0.2357 -0.3737
vn 0.7474 0.6505 -0.1347
vn -0.4072 0.8176 -0.4071
vn -0.7110 0.7032 0.0089
vn -0.9296 0.3582 -0.0868
vn 0.0456 0.9387 0.3418
vn 0.1140 0.7154 0.6893
vn 0.2271 0.5681 0.7910
vn -0.4504 0.8829 -0.1329
vn -0.3319 0.8902 -0.3120
vn -0.5831 0.2646 0.7681
vn -0.1241 0.3743 0.9190
vn 0.5096 0.8476 0.1479
vn 0.5622 0.8183 -0.1193
vn 0.3620 0.5668 0.7401
vn 0.1351 0.2290 0.9640
vn -0.8877 0.3118 0.3389
vn -0.6982 0.7029 0.1357
vn -0.0538 0.6462 -0.7612
vn -0.2525 0.0944 0.9630
vn -0.8322 0.0785 0.5489
vn 0.0476 0.1849 -0.9816
vn -0.3591 0.1484 -0.9214
vn -0.6057 0.7932 0.0633
vn -0.6678 0.0613 -0.7418
vn 0.0102 0.0415 -0.9991
vn -0.9975 0.0691 -0.0156
vn -0.7865 0.1501 -0.5991
vn 0.5821 0.0395 -0.8122
vn 0.9572 0.0388 -0.2869
vn 0.5281 0.0906 0.8443
vn 0.3863 0.7297 -0.5641
vn 0.9639 0.1949 0.1815
vn 0.7259 0.5703 0.3844
vn 0.4109 0.8588 0.3060
vn -0.3933 0.9068 0.1519
vn -0.0354 0.9062 -0.4214
vn 0.9500 0.0616 0.3061
vn 0.1839 0.8310 0.5249
vn -0.5328 0.8451 -0.0425
vn 0.4435 0.0721 0.8934
vn -0.6315 0.0489 0.7738
vn -0.4837 0.0340 -0.8746
vn -0.5608 0.0403 -0.8270
vn 0.4624 0.0387 -0.8858
vn 0.4462 0.0260 -0.8946
vn -0.9943 0.0262 -0.1033
vn 0.4056 0.0300 0.9135
vn 0.9992 0.0357 0.0181
vn 0.9980 0.0385 0.0496
vn 0.3953 0.0355 0.9179
vn 0.9977 0.0397 -0.0549
vn -0.6534 0.0375 0.7561
vn -0.7514 0.0415 0.6586
vn -0.0022 1.0000 -0.0006
vn -0.7690 0.0508 -0.6373
vn 0.4779 0.0456 -0.8772
vn -0.9964 0.0392 -0.0746
vn -0.0000 -0.0000 1.0000
vn -1.0000 -0.0000 -0.0000
vn 0.7071 -0.0000 0.7071
vn 0.7071 -0.0000 -0.7071
vt -0.233275 -3.148997
vt 0.830136 -3.208328
vt -0.060821 -3.279570
vt -0.039535 -3.284221
vt -0.011013 -3.316808
vt 0.047492 -3.338733
vt 0.096804 -3.353212
vt 0.164504 -3.382711
vt 0.162737 -3.379684
vt 0.209984 -3.376316
vt 0.250739 -3.385748
vt 0.299850 -3.394659
vt 0.352978 -3.391754
vt 0.418307 -3.381527
vt 0.474213 -3.385163
vt 0.516016 -3.381706
vt 0.580161 -3.374856
vt 0.653526 -3.349003
vt 0.711524 -3.325551
vt 0.012734 -3.298231
vt 0.107547 -3.321381
vt 0.204267 -3.379422
vt 0.306356 -3.365241
vt 0.432591 -3.363366
vt 0.506886 -3.347156
vt -0.209229 -3.119339
vt 0.818429 -3.186455
vt -0.134366 -3.230131
vt -0.110339 -3.164950
vt 0.165264 -3.299272
vt 0.377729 -3.344326
vt 0.572279 -3.317300
vt 0.696071 -3.229270
vt -0.013794 -3.232326
vt 0.208663 -3.272607
vt 0.430885 -3.285804
vt 0.119388 -3.230824
vt 0.298565 -3.213457
vt 0.617825 -3.150030
vt 0.706200 -3.096776
vt 0.777163 -3.061281
vt -0.162009 -3.011718
vt -0.105681 -3.058871
vt -0.050047 -3.093758
vt 0.032904 -3.120660
vt 0.098764 -2.562636
vt 0.281743 -2.562953
vt 0.622881 -2.562226
vt 0.359359 -2.562849
vt 0.472519 -2.562477
vt -0.113218 -2.562081
vt 0.748287 -2.562150
vt -0.016886 -2.562097
vt 0.538772 -2.562614
vt 0.196606 -2.562655
vt 0.046371 -1.715114
vt 0.282013 -1.715136
vt 0.623221 -1.715136
vt 0.488372 -1.714996
vt -0.097799 -1.715150
vt 0.781810 -1.714819
vt 0.077786 0.990852
vt 0.282013 0.990852
vt 0.623221 0.990852
vt 0.469741 0.990958
vt -0.118724 0.990852
vt 0.769607 0.990852
vt 0.176675 0.990852
vt 0.203609 2.616138
vt 0.298639 2.611551
vt 0.395707 2.609760
vt 0.105779 2.624114
vt 0.548425 2.613554
vt 0.473769 2.610916
vt 0.400663 5.720379
vt 0.180819 -1.717510
vt 0.000000 0.000000
vt 1.000000 0.000000
vt 0.000000 1.000000
vt 1.000000 1.000000
vt 0.000000 0.000000
vt 1.000000 0.000000
vt 0.000000 1.000000
vt 1.000000 1.000000
vt 0.000000 0.000000
vt 1.000000 0.000000
vt 0.000000 1.000000
vt 1.000000 1.000000
vt 0.000000 0.000000
vt 1.000000 0.000000
vt 0.000000 1.000000
vt 1.000000 1.000000
s 1
usemtl tree_bark_rt_a_1
f 32/34/1 27/29/2 2/3/3
f 11/12/4 12/13/5 22/23/6
f 8/9/7 28/30/8 7/8/9
f 25/27/10 39/41/11 38/40/12 31/33/13
f 32/34/1 19/20/14 20/21/15 35/37/16
f 12/13/5 13/14/17 23/24/18
f 13/14/17 14/15/19 23/24/18
f 5/6/20 20/21/15 19/20/14 4/5/21
f 7/8/9 28/30/8 35/37/16 20/21/15
f 36/38/22 22/23/6 12/13/5 29/31/23
f 17/18/24 18/19/25 31/33/13
f 24/25/26 34/36/27 23/24/18 14/15/19
f 22/23/6 36/38/22 33/35/28 21/22/29
f 25/26/10 26/28/30 27/29/2
f 36/38/22 46/49/31 44/47/32 33/35/28
f 33/35/28 28/30/8 8/9/7 21/22/29
f 35/37/16 28/30/8 33/35/28
f 40/43/33 27/29/2 41/44/34
f 6/7/35 7/8/9 20/21/15
f 41/44/34 43/46/36 49/53/37 40/43/33
f 51/55/38 35/37/16 33/35/28 44/47/32
f 34/36/27 46/49/31 29/31/23
f 41/44/34 27/29/2 32/34/1 42/45/39
f 39/41/11 48/52/40 45/48/41 38/40/12
f 47/50/42 46/49/31 34/36/27 24/25/26
f 1/1/43 26/28/30 25/26/10
f 31/33/13 37/39/44 30/32/45
f 12/13/5 23/24/18 34/36/27 29/31/23
f 16/17/46 31/33/13 30/32/45
f 51/55/38 43/46/36 42/45/39 35/37/16
f 39/42/11 25/26/10 27/29/2 40/43/33
f 31/33/13 38/40/12 37/39/44
f 1/2/43 25/27/10 31/33/13 18/19/25
f 17/18/24 31/33/13 16/17/46
f 2/3/3 19/20/14 32/34/1
f 27/29/2 26/28/30 2/3/3
f 42/45/39 32/34/1 35/37/16
f 22/23/6 21/22/29 10/11/47 11/12/4
f 43/46/36 41/44/34 42/45/39
f 19/20/14 2/3/3 3/4/48
f 45/48/41 50/54/49 37/39/44 38/40/12
f 16/17/46 30/32/45 24/25/26 15/16/50
f 36/38/22 29/31/23 46/49/31
f 14/15/19 15/16/50 24/25/26
f 9/10/51 10/11/47 21/22/29 8/9/7
f 48/51/40 39/42/11 40/43/33 49/53/37
f 5/6/20 6/7/35 20/21/15
f 4/5/21 19/20/14 3/4/48
f 55/59/52 47/50/42 50/54/49
f 53/57/53 44/47/32 46/49/31
f 52/56/54 57/62/55 61/66/56 56/60/57
f 51/55/38 69/76/58 43/46/36
f 51/55/38 44/47/32 53/57/53 69/76/58
f 60/65/59 59/64/60 67/74/61 65/71/62
f 53/57/53 46/49/31 55/59/52
f 55/59/52 50/54/49 54/58/63
f 58/63/64 60/65/59 65/71/62 64/70/65
f 64/70/65 65/71/62 68/75/66
f 61/66/56 57/62/55 63/69/67 66/72/68
f 63/69/67 62/68/69 58/63/64 64/70/65
f 66/73/68 67/74/61 59/64/60 61/67/56
f 57/62/55 62/68/69 63/69/67
f 63/69/67 64/70/65 68/75/66
f 65/71/62 67/74/61 68/75/66
f 66/72/68 63/69/67 68/75/66
f 56/61/57 61/67/56 59/64/60 54/58/63
f 37/39/44 50/54/49 47/50/42 24/25/26 30/32/45
f 67/74/61 66/73/68 68/75/66
f 69/76/58 52/56/54 43/46/36
f 49/53/37 52/56/54 56/60/57
f 54/58/63 59/64/60 60/65/59 55/59/52
f 50/54/49 45/48/41 54/58/63
f 55/59/52 60/65/59 58/63/64 53/57/53
f 46/49/31 47/50/42 55/59/52
f 62/68/69 57/62/55 52/56/54 69/76/58
f 48/51/40 49/53/37 56/60/57
f 49/53/37 43/46/36 52/56/54
f 58/63/64 62/68/69 69/76/58 53/57/53
f 54/58/63 45/48/41 48/52/40 56/61/57
s 0
usemtl dead_tree_rt_1
f 70/77/70 71/78/70 73/80/70 72/79/70
f 74/81/71 75/82/71 77/84/71 76/83/71
f 78/85/72 79/86/72 81/88/72 80/87/72
f 82/89/73 83/90/73 85/92/73 84/91/73
