# Blender 3.4.0
# www.blender.org
mtllib small_tree_rt_1.mtl
o small_tree_rt_1
v -0.288968 0.000000 0.105225
v 0.288968 0.000000 -0.105225
v -0.288968 1.139358 0.105225
v 0.288968 1.139358 -0.105225
v 0.105225 0.000000 0.288968
v -0.105225 0.000000 -0.288968
v 0.105225 1.185692 0.288968
v -0.105225 1.185692 -0.288968
v -0.129926 0.000000 0.278736
v 0.129926 0.000000 -0.278736
v -0.129926 1.224000 0.278736
v 0.129926 1.224000 -0.278736
v 0.278736 0.000000 0.129926
v -0.278736 0.000000 -0.129926
v 0.278736 1.185692 0.129926
v -0.278736 1.185692 -0.129926
vn 0.3422 -0.0000 0.9396
vn 0.9396 -0.0000 -0.3422
vn 0.9064 -0.0000 0.4225
vn 0.4225 -0.0000 -0.9064
vt 0.000000 0.069152
vt 1.000000 0.069152
vt 0.000000 1.000000
vt 1.000000 1.000000
vt 1.000000 0.031297
vt 0.000000 0.031297
vt 1.000000 1.000000
vt 0.000000 1.000000
vt 1.000000 0.000000
vt 0.000000 0.000000
vt 1.000000 1.000000
vt 0.000000 1.000000
vt 1.000000 0.031297
vt 0.000000 0.031297
vt 1.000000 1.000000
vt 0.000000 1.000000
s 0
usemtl small_tree_rt_1
f 1/1/1 2/2/1 4/4/1 3/3/1
f 5/5/2 6/6/2 8/8/2 7/7/2
f 9/9/3 10/10/3 12/12/3 11/11/3
f 13/13/4 14/14/4 16/16/4 15/15/4
