# Blender 3.4.0
# www.blender.org
mtllib tree_rt_4.mtl
o tree_rt_4
v 0.103365 0.000003 0.214193
v 0.216880 0.000003 -0.039841
v 0.234751 0.000003 -0.069317
v 0.234450 0.000003 -0.117746
v 0.192703 0.000003 -0.168087
v 0.145306 0.000003 -0.191464
v 0.062290 0.000003 -0.200128
v 0.023505 0.000003 -0.184031
v -0.034680 0.000003 -0.234082
v -0.077081 0.000003 -0.239909
v -0.128017 0.000003 -0.233181
v -0.162862 0.000003 -0.150729
v -0.235261 0.000003 -0.077506
v -0.212413 0.000003 0.003067
v -0.250662 0.000003 0.074363
v -0.237927 0.000003 0.127375
v -0.159184 0.000003 0.202473
v -0.084196 0.000003 0.253067
v 0.204642 0.018518 -0.102950
v 0.122460 0.021674 -0.169351
v -0.032708 0.010943 -0.213200
v -0.108051 0.018512 -0.197240
v -0.196255 0.015764 -0.058308
v -0.205658 0.027011 0.057381
v 0.097845 0.026085 0.188373
v 0.204012 0.000003 0.065704
v 0.166689 0.047861 0.048616
v 0.038509 0.042151 -0.175699
v -0.158527 0.031764 -0.113705
v -0.186787 0.038159 0.094088
v -0.061907 0.047406 0.186234
v 0.176337 0.050476 -0.073460
v -0.017874 0.067249 -0.179270
v -0.181063 0.061885 -0.046451
v 0.107045 0.078195 -0.142659
v -0.086448 0.104607 -0.153272
v -0.099939 0.111144 0.138051
v 0.002276 0.113624 0.167678
v 0.081093 0.107688 0.146571
v 0.144880 0.106930 0.065786
v 0.169023 0.106930 0.005084
v 0.148550 0.116214 -0.087067
v 0.120276 0.590055 -0.024649
v -0.038494 0.590055 -0.100968
v -0.042769 0.590055 0.130492
v -0.116857 0.590055 -0.061029
v -0.139590 0.590055 0.018455
v 0.059218 0.590055 0.118886
v 0.110068 0.590055 0.059630
v -0.105352 0.590055 0.096781
v 0.047784 0.590055 -0.091977
v 0.116832 1.070055 0.002471
v -0.028889 1.070055 -0.094740
v -0.033087 1.070055 0.132497
v -0.109621 1.070055 0.030941
v 0.073803 1.070055 0.106257
v 0.074480 2.510055 -0.004387
v -0.017361 2.510055 -0.048534
v -0.019834 2.510055 0.085355
v -0.053051 2.510055 0.016709
v 0.039161 2.510055 0.078641
v 0.032547 2.510055 -0.043333
v 0.027468 3.470055 0.005403
v -0.008217 3.470055 -0.011885
v -0.034358 3.470055 0.018995
v 0.017049 3.470055 0.044963
v -0.014087 3.470055 0.044449
v -0.000826 4.190055 0.017740
v 0.065129 1.070055 -0.092579
v 1.044068 0.865602 -2.275816
v -1.044970 0.865602 2.310079
v 1.044069 4.956388 -2.275816
v -1.044970 4.956388 2.310079
v 2.294390 0.757886 1.064203
v -2.291504 0.757886 -1.024835
v 2.294390 4.848671 1.064204
v -2.291504 4.848672 -1.024834
v -0.908662 1.126031 -2.389722
v 0.856882 1.126031 2.330168
v -0.908662 5.216816 -2.389722
v 0.856881 5.216815 2.330168
v -2.379699 1.464461 0.911008
v 2.340191 1.464461 -0.854536
v -2.379700 5.555246 0.911008
v 2.340190 5.555245 -0.854535
vn 0.8380 0.4923 -0.2354
vn 0.8347 0.4715 0.2845
vn 0.6824 0.7240 0.1011
vn -0.2192 0.9205 -0.3236
vn -0.6511 0.6305 -0.4226
vn -0.3483 0.7715 -0.5325
vn 0.0674 0.3658 -0.9283
vn 0.1743 0.3918 -0.9034
vn -0.0115 0.5046 -0.8633
vn 0.4625 0.5953 0.6571
vn 0.5197 0.2277 0.8234
vn -0.0318 0.2357 0.9713
vn -0.1873 0.6505 0.7360
vn 0.5392 0.8176 -0.2018
vn 0.2866 0.7032 -0.6507
vn 0.4644 0.3582 -0.8099
vn -0.3300 0.9387 -0.1002
vn -0.6746 0.7154 -0.1820
vn -0.8140 0.5681 -0.1212
vn 0.3076 0.8829 -0.3547
vn 0.4215 0.8902 -0.1727
vn -0.4573 0.2646 -0.8490
vn -0.7849 0.3743 -0.4939
vn -0.3459 0.8476 0.4024
vn -0.1245 0.8183 0.5611
vn -0.8236 0.5668 0.0226
vn -0.9333 0.2290 -0.2767
vn 0.0596 0.3118 -0.9483
vn 0.1660 0.7029 -0.6916
vn 0.7150 0.6462 0.2667
vn -0.7717 0.0944 -0.6290
vn -0.1545 0.0785 -0.9849
vn 0.8736 0.1849 0.4502
vn 0.9874 0.1484 0.0552
vn 0.1935 0.7932 -0.5775
vn 0.9519 0.0613 -0.3002
vn 0.9050 0.0415 0.4235
vn 0.4277 0.0691 -0.9013
vn 0.8712 0.1501 -0.4673
vn 0.4978 0.0395 0.8664
vn -0.1357 0.0388 0.9900
vn -0.9873 0.0906 0.1306
vn 0.3532 0.7297 0.5854
vn -0.5648 0.1949 0.8019
vn -0.6508 0.5703 0.5012
vn -0.4488 0.8588 0.2471
vn 0.0248 0.9068 -0.4208
vn 0.3981 0.9062 0.1425
vn -0.6724 0.0616 0.7376
vn -0.5539 0.8310 -0.0503
vn 0.2596 0.8451 -0.4673
vn -0.9968 0.0721 0.0332
vn -0.4424 0.0489 -0.8955
vn 0.9964 0.0340 -0.0776
vn 0.9850 0.0403 -0.1675
vn 0.6144 0.0387 0.7880
vn 0.6291 0.0260 0.7769
vn 0.5062 0.0262 -0.8620
vn -0.9995 0.0300 -0.0096
vn -0.4307 0.0357 0.9018
vn -0.4588 0.0385 0.8877
vn -0.9992 0.0355 -0.0208
vn -0.3636 0.0397 0.9307
vn -0.4172 0.0375 -0.9080
vn -0.2879 0.0415 -0.9568
vn 0.0012 1.0000 -0.0018
vn 0.8987 0.0508 -0.4356
vn 0.6002 0.0456 0.7986
vn 0.4809 0.0392 -0.8759
vn -0.9100 -0.0000 -0.4145
vn 0.4145 -0.0000 -0.9100
vn -0.9366 -0.0000 0.3504
vn 0.3504 -0.0000 0.9366
vt -0.233275 -3.148997
vt 0.830136 -3.208328
vt -0.060821 -3.279570
vt -0.039535 -3.284221
vt -0.011013 -3.316808
vt 0.047492 -3.338733
vt 0.096804 -3.353212
vt 0.164504 -3.382711
vt 0.162737 -3.379684
vt 0.209984 -3.376316
vt 0.250739 -3.385748
vt 0.299850 -3.394659
vt 0.352978 -3.391754
vt 0.418307 -3.381527
vt 0.474213 -3.385163
vt 0.516016 -3.381706
vt 0.580161 -3.374856
vt 0.653526 -3.349003
vt 0.711524 -3.325551
vt 0.012734 -3.298231
vt 0.107547 -3.321381
vt 0.204267 -3.379422
vt 0.306356 -3.365241
vt 0.432591 -3.363366
vt 0.506886 -3.347156
vt -0.209229 -3.119339
vt 0.818429 -3.186455
vt -0.134366 -3.230131
vt -0.110339 -3.164950
vt 0.165264 -3.299272
vt 0.377729 -3.344326
vt 0.572279 -3.317300
vt 0.696071 -3.229270
vt -0.013794 -3.232326
vt 0.208663 -3.272607
vt 0.430885 -3.285804
vt 0.119388 -3.230824
vt 0.298565 -3.213457
vt 0.617825 -3.150030
vt 0.706200 -3.096776
vt 0.777163 -3.061281
vt -0.162009 -3.011718
vt -0.105681 -3.058871
vt -0.050047 -3.093758
vt 0.032904 -3.120660
vt 0.098764 -2.562636
vt 0.281743 -2.562953
vt 0.622881 -2.562226
vt 0.359359 -2.562849
vt 0.472519 -2.562477
vt -0.113218 -2.562081
vt 0.748287 -2.562150
vt -0.016886 -2.562097
vt 0.538772 -2.562614
vt 0.196606 -2.562655
vt 0.046371 -1.715114
vt 0.282013 -1.715136
vt 0.623221 -1.715136
vt 0.488372 -1.714996
vt -0.097799 -1.715150
vt 0.781810 -1.714819
vt 0.077786 0.990852
vt 0.282013 0.990852
vt 0.623221 0.990852
vt 0.469741 0.990958
vt -0.118724 0.990852
vt 0.769607 0.990852
vt 0.176675 0.990852
vt 0.203609 2.616138
vt 0.298639 2.611551
vt 0.395707 2.609760
vt 0.105779 2.624114
vt 0.548425 2.613554
vt 0.473769 2.610916
vt 0.400663 5.720379
vt 0.180819 -1.717510
vt 0.000000 0.000000
vt 1.000000 0.000000
vt 0.000000 1.000000
vt 1.000000 1.000000
vt 0.000000 0.000000
vt 1.000000 0.000000
vt 0.000000 1.000000
vt 1.000000 1.000000
vt 0.000000 0.000000
vt 1.000000 0.000000
vt 0.000000 1.000000
vt 1.000000 1.000000
vt 0.000000 0.000000
vt 1.000000 0.000000
vt 0.000000 1.000000
vt 1.000000 1.000000
s 1
usemtl tree_bark_rt_a
f 32/34/1 27/29/2 2/3/3
f 11/12/4 12/13/5 22/23/6
f 8/9/7 28/30/8 7/8/9
f 25/27/10 39/41/11 38/40/12 31/33/13
f 32/34/1 19/20/14 20/21/15 35/37/16
f 12/13/5 13/14/17 23/24/18
f 13/14/17 14/15/19 23/24/18
f 5/6/20 20/21/15 19/20/14 4/5/21
f 7/8/9 28/30/8 35/37/16 20/21/15
f 36/38/22 22/23/6 12/13/5 29/31/23
f 17/18/24 18/19/25 31/33/13
f 24/25/26 34/36/27 23/24/18 14/15/19
f 22/23/6 36/38/22 33/35/28 21/22/29
f 25/26/10 26/28/30 27/29/2
f 36/38/22 46/49/31 44/47/32 33/35/28
f 33/35/28 28/30/8 8/9/7 21/22/29
f 35/37/16 28/30/8 33/35/28
f 40/43/33 27/29/2 41/44/34
f 6/7/35 7/8/9 20/21/15
f 41/44/34 43/46/36 49/53/37 40/43/33
f 51/55/38 35/37/16 33/35/28 44/47/32
f 34/36/27 46/49/31 29/31/23
f 41/44/34 27/29/2 32/34/1 42/45/39
f 39/41/11 48/52/40 45/48/41 38/40/12
f 47/50/42 46/49/31 34/36/27 24/25/26
f 1/1/43 26/28/30 25/26/10
f 31/33/13 37/39/44 30/32/45
f 12/13/5 23/24/18 34/36/27 29/31/23
f 16/17/46 31/33/13 30/32/45
f 51/55/38 43/46/36 42/45/39 35/37/16
f 39/42/11 25/26/10 27/29/2 40/43/33
f 31/33/13 38/40/12 37/39/44
f 1/2/43 25/27/10 31/33/13 18/19/25
f 17/18/24 31/33/13 16/17/46
f 2/3/3 19/20/14 32/34/1
f 27/29/2 26/28/30 2/3/3
f 42/45/39 32/34/1 35/37/16
f 22/23/6 21/22/29 10/11/47 11/12/4
f 43/46/36 41/44/34 42/45/39
f 19/20/14 2/3/3 3/4/48
f 45/48/41 50/54/49 37/39/44 38/40/12
f 16/17/46 30/32/45 24/25/26 15/16/50
f 36/38/22 29/31/23 46/49/31
f 14/15/19 15/16/50 24/25/26
f 9/10/51 10/11/47 21/22/29 8/9/7
f 48/51/40 39/42/11 40/43/33 49/53/37
f 5/6/20 6/7/35 20/21/15
f 4/5/21 19/20/14 3/4/48
f 55/59/52 47/50/42 50/54/49
f 53/57/53 44/47/32 46/49/31
f 52/56/54 57/62/55 61/66/56 56/60/57
f 51/55/38 69/76/58 43/46/36
f 51/55/38 44/47/32 53/57/53 69/76/58
f 60/65/59 59/64/60 67/74/61 65/71/62
f 53/57/53 46/49/31 55/59/52
f 55/59/52 50/54/49 54/58/63
f 58/63/64 60/65/59 65/71/62 64/70/65
f 64/70/65 65/71/62 68/75/66
f 61/66/56 57/62/55 63/69/67 66/72/68
f 63/69/67 62/68/69 58/63/64 64/70/65
f 66/73/68 67/74/61 59/64/60 61/67/56
f 57/62/55 62/68/69 63/69/67
f 63/69/67 64/70/65 68/75/66
f 65/71/62 67/74/61 68/75/66
f 66/72/68 63/69/67 68/75/66
f 56/61/57 61/67/56 59/64/60 54/58/63
f 37/39/44 50/54/49 47/50/42 24/25/26 30/32/45
f 67/74/61 66/73/68 68/75/66
f 69/76/58 52/56/54 43/46/36
f 49/53/37 52/56/54 56/60/57
f 54/58/63 59/64/60 60/65/59 55/59/52
f 50/54/49 45/48/41 54/58/63
f 55/59/52 60/65/59 58/63/64 53/57/53
f 46/49/31 47/50/42 55/59/52
f 62/68/69 57/62/55 52/56/54 69/76/58
f 48/51/40 49/53/37 56/60/57
f 49/53/37 43/46/36 52/56/54
f 58/63/64 62/68/69 69/76/58 53/57/53
f 54/58/63 45/48/41 48/52/40 56/61/57
s 0
usemtl tree_rt_4
f 70/77/70 71/78/70 73/80/70 72/79/70
f 74/81/71 75/82/71 77/84/71 76/83/71
f 78/85/72 79/86/72 81/88/72 80/87/72
f 82/89/73 83/90/73 85/92/73 84/91/73
