# Blender 3.4.0
# www.blender.org
mtllib tree_rt_2.mtl
o tree_rt_2
v 0.071214 0.000002 0.083976
v 0.092563 0.000002 -0.043059
v 0.097146 0.000002 -0.058345
v 0.091383 0.000002 -0.080013
v 0.066824 0.000002 -0.097721
v 0.042867 0.000002 -0.102689
v 0.004657 0.000002 -0.096924
v -0.010853 0.000002 -0.085203
v -0.042745 0.000002 -0.100871
v -0.062424 0.000002 -0.098555
v -0.084468 0.000002 -0.089620
v -0.114437 0.000002 -0.007393
v -0.094834 0.000002 0.026060
v -0.091822 0.000002 0.084732
v -0.047807 0.000002 0.109235
v -0.008322 0.000002 0.123194
v 0.079744 0.015432 -0.069918
v 0.035198 0.018062 -0.090124
v -0.039434 0.009119 -0.091742
v -0.071344 0.015427 -0.075834
v -0.094726 0.013137 -0.003323
v -0.085495 0.022509 0.049615
v 0.065740 0.021738 0.073047
v 0.099061 0.000002 0.005736
v 0.080350 0.039884 0.002415
v -0.003161 0.035126 -0.083213
v -0.006100 0.039505 0.090653
v 0.070487 0.042064 -0.053413
v -0.028844 0.056041 -0.078261
v -0.086540 0.051571 0.000225
v 0.031392 0.065162 -0.076371
v -0.056553 0.087173 -0.058641
v -0.028744 0.092620 0.073480
v 0.020506 0.094686 0.074879
v 0.053374 0.089740 0.056260
v 0.072572 0.089109 0.012644
v 0.076337 0.089109 -0.017364
v 0.056453 0.096845 -0.056281
v 0.051036 0.491712 -0.025024
v -0.028984 0.491712 -0.040774
v -0.004002 0.491712 0.063449
v -0.059460 0.491712 -0.013769
v -0.060411 0.491712 0.024493
v 0.040354 0.491712 0.046395
v 0.056256 0.491712 0.013931
v -0.035965 0.491712 0.055615
v 0.010725 0.491712 -0.046771
v 0.052644 0.891712 -0.012470
v -0.023956 0.891712 -0.039099
v 0.000570 0.891712 0.063222
v -0.045530 0.891712 0.026605
v 0.045422 0.891712 0.039041
v 0.032868 2.091712 -0.010622
v -0.013420 2.091712 -0.019732
v 0.001031 2.091712 0.040556
v -0.021833 2.091712 0.013653
v 0.026689 2.091712 0.030691
v 0.009550 2.091712 -0.023201
v 0.012937 2.891712 -0.000771
v -0.005064 2.891712 -0.004371
v -0.013190 2.891712 0.012505
v 0.012866 2.891712 0.018169
v -0.001147 2.891712 0.021556
v 0.001692 3.491712 0.008046
v 0.018428 0.891712 -0.049057
v 0.222919 0.830262 -1.192648
v -0.180322 0.830262 1.105248
v 0.222920 4.666734 -1.192647
v -0.180321 4.666734 1.105248
v 1.215352 0.619590 0.184887
v -1.082543 0.619590 -0.218354
v 1.215352 4.456061 0.184888
v -1.082543 4.456061 -0.218353
v -0.695017 1.074500 -1.011848
v 0.644706 1.074500 0.898144
v -0.695017 4.910971 -1.011847
v 0.644705 4.910971 0.898144
v -0.976314 0.949651 0.699160
v 0.933678 0.949651 -0.640563
v -0.976314 4.786123 0.699160
v 0.933678 4.786123 -0.640562
vn 0.8090 0.3148 -0.4965
vn 0.9546 0.2912 0.0629
vn 0.8439 0.5321 -0.0683
vn -0.2007 0.2441 -0.9488
vn -0.0234 0.2334 -0.9721
vn -0.2847 0.3185 -0.9041
vn 0.6903 0.3984 0.6040
vn 0.7178 0.1302 0.6840
vn 0.1979 0.1367 0.9706
vn -0.0278 0.4430 0.8961
vn 0.6456 0.6258 -0.4376
vn 0.1550 0.4884 -0.8587
vn 0.2622 0.1993 -0.9442
vn -0.8153 0.0071 0.5790
vn -0.5576 0.8298 0.0224
vn -0.8407 0.5410 0.0214
vn -0.9173 0.3661 0.1568
vn 0.3029 0.7193 -0.6252
vn 0.5402 0.7360 -0.4081
vn -0.5671 0.5270 -0.6330
vn -0.3265 0.6620 0.6746
vn 0.0275 0.6204 0.7838
vn -0.6933 0.2585 0.6727
vn -0.9919 0.1220 -0.0358
vn -0.6689 0.1404 -0.7299
vn -0.1906 0.1967 -0.9618
vn -0.0033 0.5033 -0.8641
vn 0.9009 0.4241 0.0920
vn -0.9051 0.0511 -0.4221
vn -0.3948 0.0436 -0.9177
vn 0.9710 0.1033 0.2154
vn 0.9800 0.0849 -0.1799
vn 0.0488 0.5843 -0.8101
vn 0.8454 0.0338 -0.5330
vn 0.9829 0.0227 0.1826
vn 0.1920 0.0383 -0.9807
vn 0.7413 0.0824 -0.6661
vn 0.7014 0.0219 0.7124
vn 0.1222 0.0217 0.9923
vn -0.9230 0.0475 0.3818
vn 0.6183 0.5091 0.5988
vn -0.3593 0.1027 0.9275
vn -0.8383 0.5063 0.2022
vn -0.1186 0.7658 -0.6321
vn 0.6428 0.7642 0.0524
vn -0.4599 0.0307 0.8875
vn 0.1883 0.6599 -0.7273
vn -0.9594 0.0408 0.2792
vn -0.6599 0.0280 -0.7508
vn 0.9452 0.0192 -0.3260
vn 0.9121 0.0225 -0.4094
vn 0.7933 0.0215 0.6084
vn 0.8044 0.0147 0.5938
vn 0.2759 0.0151 -0.9611
vn -0.9700 0.0167 0.2426
vn -0.1914 0.0198 0.9813
vn -0.2203 0.0214 0.9752
vn -0.9729 0.0198 0.2305
vn -0.1248 0.0226 0.9919
vn -0.6319 0.0209 -0.7747
vn -0.5186 0.0231 -0.8547
vn 0.0006 1.0000 -0.0024
vn 0.7608 0.0282 -0.6484
vn 0.7820 0.0253 0.6227
vn 0.2467 0.0218 -0.9688
vn -0.9849 -0.0000 -0.1728
vn 0.1728 -0.0000 -0.9849
vn -0.8187 -0.0000 0.5742
vn 0.5742 -0.0000 0.8187
vt -0.233275 -3.148997
vt 0.830136 -3.208328
vt -0.060821 -3.279570
vt -0.039535 -3.284221
vt -0.011013 -3.316808
vt 0.047492 -3.338733
vt 0.096804 -3.353212
vt 0.164504 -3.382711
vt 0.162737 -3.379684
vt 0.209984 -3.376316
vt 0.250739 -3.385748
vt 0.294372 -3.401859
vt 0.299850 -3.394659
vt 0.418307 -3.381527
vt 0.474213 -3.385163
vt 0.580161 -3.374856
vt 0.653526 -3.349003
vt 0.711524 -3.325551
vt 0.012734 -3.298231
vt 0.107547 -3.321381
vt 0.204267 -3.379422
vt 0.306356 -3.365241
vt 0.432591 -3.363366
vt 0.506886 -3.347156
vt -0.209229 -3.119339
vt 0.818429 -3.186455
vt -0.134366 -3.230131
vt -0.110339 -3.164950
vt 0.165264 -3.299272
vt 0.696071 -3.229270
vt -0.013794 -3.232326
vt 0.208663 -3.272607
vt 0.430885 -3.285804
vt 0.119388 -3.230824
vt 0.298565 -3.213457
vt 0.617825 -3.150030
vt 0.706200 -3.096776
vt 0.777163 -3.061281
vt -0.162009 -3.011718
vt -0.105681 -3.058871
vt -0.050047 -3.093758
vt 0.032904 -3.120660
vt 0.098764 -2.562636
vt 0.281743 -2.562953
vt 0.622881 -2.562226
vt 0.359359 -2.562849
vt 0.472519 -2.562477
vt -0.113218 -2.562081
vt 0.748287 -2.562150
vt -0.016886 -2.562097
vt 0.538772 -2.562614
vt 0.196606 -2.562655
vt 0.046371 -1.715114
vt 0.282013 -1.715136
vt 0.623221 -1.715136
vt 0.488372 -1.714996
vt -0.097799 -1.715150
vt 0.781810 -1.714819
vt 0.077786 0.990852
vt 0.282013 0.990852
vt 0.623221 0.990852
vt 0.469741 0.990958
vt -0.118724 0.990852
vt 0.769607 0.990852
vt 0.176675 0.990852
vt 0.203609 2.616138
vt 0.298639 2.611551
vt 0.395707 2.609760
vt 0.105779 2.624114
vt 0.548425 2.613554
vt 0.473769 2.610916
vt 0.400663 5.720379
vt 0.180819 -1.717510
vt 0.000000 0.000000
vt 1.000000 0.000000
vt 0.000000 1.000000
vt 1.000000 1.000000
vt 0.000000 0.000000
vt 1.000000 0.000000
vt 0.000000 1.000000
vt 1.000000 1.000000
vt 0.000000 0.000000
vt 1.000000 0.000000
vt 0.000000 1.000000
vt 1.000000 1.000000
vt 0.000000 0.000000
vt 1.000000 0.000000
vt 0.000000 1.000000
vt 1.000000 1.000000
s 1
usemtl tree_bark_rt_b_1
f 28/31/1 25/28/2 2/3/3
f 8/9/4 26/29/5 7/8/6
f 23/26/7 35/38/8 34/37/9 27/30/10
f 28/31/1 17/19/11 18/20/12 31/34/13
f 11/12/14 12/14/15 21/23/16
f 12/14/15 13/15/17 21/23/16
f 5/6/18 18/20/12 17/19/11 4/5/19
f 7/8/6 26/29/5 31/34/13 18/20/12
f 11/12/14 21/23/16 20/22/20
f 15/17/21 16/18/22 27/30/10
f 22/24/23 30/33/24 21/23/16 13/15/17
f 20/22/20 32/35/25 29/32/26 19/21/27
f 23/25/7 24/27/28 25/28/2
f 32/35/25 42/46/29 40/44/30 29/32/26
f 29/32/26 26/29/5 8/9/4 19/21/27
f 31/34/13 26/29/5 29/32/26
f 36/40/31 25/28/2 37/41/32
f 6/7/33 7/8/6 18/20/12
f 37/41/32 39/43/34 45/50/35 36/40/31
f 47/52/36 31/34/13 29/32/26 40/44/30
f 37/41/32 25/28/2 28/31/1 38/42/37
f 35/38/8 44/49/38 41/45/39 34/37/9
f 43/47/40 42/46/29 30/33/24 22/24/23
f 1/1/41 24/27/28 23/25/7
f 27/30/10 33/36/42 22/24/23
f 32/35/25 30/33/24 42/46/29
f 14/16/43 27/30/10 22/24/23
f 47/52/36 39/43/34 38/42/37 31/34/13
f 35/39/8 23/25/7 25/28/2 36/40/31
f 27/30/10 34/37/9 33/36/42
f 1/2/41 23/26/7 27/30/10 16/18/22
f 15/17/21 27/30/10 14/16/43
f 2/3/3 17/19/11 28/31/1
f 25/28/2 24/27/28 2/3/3
f 38/42/37 28/31/1 31/34/13
f 20/22/20 19/21/27 10/11/44 11/13/14
f 39/43/34 37/41/32 38/42/37
f 17/19/11 2/3/3 3/4/45
f 41/45/39 46/51/46 33/36/42 34/37/9
f 13/15/17 14/16/43 22/24/23
f 9/10/47 10/11/44 19/21/27 8/9/4
f 44/48/38 35/39/8 36/40/31 45/50/35
f 5/6/18 6/7/33 18/20/12
f 4/5/19 17/19/11 3/4/45
f 51/56/48 43/47/40 46/51/46
f 49/54/49 40/44/30 42/46/29
f 48/53/50 53/59/51 57/63/52 52/57/53
f 47/52/36 65/73/54 39/43/34
f 47/52/36 40/44/30 49/54/49 65/73/54
f 56/62/55 55/61/56 63/71/57 61/68/58
f 49/54/49 42/46/29 51/56/48
f 51/56/48 46/51/46 50/55/59
f 54/60/60 56/62/55 61/68/58 60/67/61
f 60/67/61 61/68/58 64/72/62
f 57/63/52 53/59/51 59/66/63 62/69/64
f 59/66/63 58/65/65 54/60/60 60/67/61
f 62/70/64 63/71/57 55/61/56 57/64/52
f 53/59/51 58/65/65 59/66/63
f 59/66/63 60/67/61 64/72/62
f 61/68/58 63/71/57 64/72/62
f 62/69/64 59/66/63 64/72/62
f 52/58/53 57/64/52 55/61/56 50/55/59
f 33/36/42 46/51/46 43/47/40 22/24/23
f 63/71/57 62/70/64 64/72/62
f 65/73/54 48/53/50 39/43/34
f 45/50/35 48/53/50 52/57/53
f 50/55/59 55/61/56 56/62/55 51/56/48
f 46/51/46 41/45/39 50/55/59
f 51/56/48 56/62/55 54/60/60 49/54/49
f 42/46/29 43/47/40 51/56/48
f 58/65/65 53/59/51 48/53/50 65/73/54
f 44/48/38 45/50/35 52/57/53
f 45/50/35 39/43/34 48/53/50
f 54/60/60 58/65/65 65/73/54 49/54/49
f 50/55/59 41/45/39 44/49/38 52/58/53
f 21/23/16 30/33/24 32/35/25 20/22/20
s 0
usemtl tree_rt_2
f 66/74/66 67/75/66 69/77/66 68/76/66
f 70/78/67 71/79/67 73/81/67 72/80/67
f 74/82/68 75/83/68 77/85/68 76/84/68
f 78/86/69 79/87/69 81/89/69 80/88/69
