# Blender 3.4.0
# www.blender.org
mtllib tree_rt_2_1.mtl
o tree_rt_2_1
v -0.005027 0.000002 0.109992
v 0.097108 0.000002 0.031494
v 0.110873 0.000002 0.023420
v 0.121407 0.000002 0.003627
v 0.115479 0.000002 -0.026064
v 0.101317 0.000002 -0.046016
v 0.069408 0.000002 -0.067812
v 0.050068 0.000002 -0.069789
v 0.037381 0.000002 -0.102979
v 0.021392 0.000002 -0.114683
v -0.000836 0.000002 -0.123150
v -0.078774 0.000002 -0.083337
v -0.087197 0.000002 -0.045490
v -0.124942 0.000002 -0.000470
v -0.109392 0.000002 0.047446
v -0.089980 0.000002 0.084555
v 0.106010 0.015432 0.003095
v 0.087145 0.018062 -0.042036
v 0.033589 0.009119 -0.094040
v -0.000611 0.015427 -0.104117
v -0.067110 0.013137 -0.066934
v -0.096396 0.022509 -0.021880
v -0.001594 0.021738 0.098260
v 0.068643 0.000002 0.071654
v 0.057200 0.039884 0.056481
v 0.054347 0.035126 -0.063094
v -0.066195 0.039505 0.062237
v 0.087992 0.042064 0.008879
v 0.032166 0.056041 -0.076955
v -0.063531 0.051571 -0.058762
v 0.074993 0.065162 -0.034555
v -0.001487 0.087173 -0.081454
v -0.071085 0.092620 0.034242
v -0.035969 0.094686 0.068801
v 0.000780 0.089740 0.077546
v 0.044538 0.089109 0.058676
v 0.067729 0.089109 0.039263
v 0.079667 0.096845 -0.002778
v 0.054416 0.491712 0.016425
v 0.006537 0.491712 -0.049597
v -0.046135 0.491712 0.043742
v -0.034170 0.491712 -0.050572
v -0.060920 0.491712 -0.023198
v -0.002038 0.491712 0.061456
v 0.031713 0.491712 0.048509
v -0.064209 0.491712 0.016240
v 0.039702 0.491712 -0.026950
v 0.047045 0.891712 0.026714
v 0.009079 0.891712 -0.044947
v -0.042632 0.891712 0.046689
v -0.051460 0.891712 -0.011518
v 0.006681 0.891712 0.059521
v 0.031303 2.091712 0.014602
v 0.003608 2.091712 -0.023589
v -0.026861 2.091712 0.030403
v -0.025286 2.091712 -0.004867
v -0.001353 2.091712 0.040650
v 0.022792 2.091712 -0.010489
v 0.009999 2.891712 0.008245
v -0.000732 2.891712 -0.006649
v -0.018175 2.891712 0.000177
v -0.002949 2.891712 0.022066
v -0.015518 2.891712 0.015006
v -0.004240 3.491712 0.007044
v 0.046900 0.891712 -0.023379
v 0.975358 0.864601 -0.721649
v -0.884649 0.864601 0.686648
v 0.975358 4.810189 -0.721649
v -0.884648 4.810189 0.686648
v 0.764175 0.603281 0.962965
v -0.644123 0.603281 -0.897041
v 0.764174 4.548868 0.962965
v -0.644123 4.548868 -0.897041
v 0.179992 1.115786 -1.214285
v -0.139414 1.115786 1.096755
v 0.179992 5.061373 -1.214285
v -0.139415 5.061373 1.096755
v -1.191082 0.987385 -0.152762
v 1.119957 0.987385 0.166644
v -1.191083 4.932973 -0.152762
v 1.119957 4.932973 0.166645
vn 0.9305 0.3148 0.1872
vn 0.6563 0.2912 0.6961
vn 0.6646 0.5321 0.5246
vn 0.4991 0.2441 -0.8315
vn 0.6448 0.2334 -0.7279
vn 0.4071 0.3185 -0.8560
vn 0.0943 0.3984 0.9123
vn 0.0599 0.1302 0.9897
vn -0.5160 0.1367 0.8456
vn -0.6305 0.4430 0.6374
vn 0.7708 0.6258 0.1191
vn 0.6983 0.4884 -0.5233
vn 0.8349 0.1993 -0.5130
vn -0.9913 0.0071 -0.1311
vn -0.4236 0.8298 -0.3633
vn -0.6303 0.5410 -0.5568
vn -0.7786 0.3661 -0.5097
vn 0.6475 0.7193 -0.2516
vn 0.6735 0.7360 0.0690
vn 0.0157 0.5270 -0.8497
vn -0.6985 0.6620 0.2717
vn -0.5136 0.6204 0.5927
vn -0.9658 0.2585 0.0205
vn -0.7020 0.1220 -0.7016
vn 0.0071 0.1404 -0.9901
vn 0.5153 0.1967 -0.8341
vn 0.5860 0.5033 -0.6351
vn 0.5972 0.4241 0.6809
vn -0.3755 0.0511 -0.9254
vn 0.3357 0.0436 -0.9409
vn 0.5645 0.1033 0.8189
vn 0.8402 0.0849 0.5356
vn 0.5873 0.5843 -0.5601
vn 0.9821 0.0338 0.1853
vn 0.5955 0.0227 0.8031
vn 0.8083 0.0383 -0.5875
vn 0.9965 0.0824 0.0170
vn 0.0285 0.0219 0.9994
vn -0.5862 0.0217 0.8099
vn -0.9359 0.0475 -0.3489
vn 0.0451 0.5091 0.8595
vn -0.8947 0.1027 0.4346
vn -0.7516 0.5063 -0.4227
vn 0.3436 0.7658 -0.5437
vn 0.4351 0.7642 0.4761
vn -0.9411 0.0307 0.3368
vn 0.6332 0.6599 -0.4044
vn -0.8927 0.0408 -0.4488
vn 0.0280 0.0280 -0.9992
vn 0.9142 0.0192 0.4049
vn 0.9467 0.0225 0.3212
vn 0.1667 0.0215 0.9858
vn 0.1848 0.0147 0.9827
vn 0.8564 0.0151 -0.5160
vn -0.8756 0.0167 -0.4828
vn -0.8084 0.0198 0.5883
vn -0.8254 0.0214 0.5642
vn -0.8694 0.0198 -0.4936
vn -0.7668 0.0226 0.6415
vn 0.0647 0.0209 -0.9977
vn 0.2022 0.0231 -0.9791
vn 0.0021 1.0000 -0.0013
vn 0.9987 0.0282 0.0432
vn 0.1487 0.0253 0.9886
vn 0.8404 0.0218 -0.5415
vn -0.6036 -0.0000 -0.7973
vn 0.7973 -0.0000 -0.6036
vn -0.9906 -0.0000 -0.1369
vn -0.1369 -0.0000 0.9906
vt -0.233275 -3.148997
vt 0.830136 -3.208328
vt -0.060821 -3.279570
vt -0.039535 -3.284221
vt -0.011013 -3.316808
vt 0.047492 -3.338733
vt 0.096804 -3.353212
vt 0.164504 -3.382711
vt 0.162737 -3.379684
vt 0.209984 -3.376316
vt 0.250739 -3.385748
vt 0.294372 -3.401859
vt 0.299850 -3.394659
vt 0.418307 -3.381527
vt 0.474213 -3.385163
vt 0.580161 -3.374856
vt 0.653526 -3.349003
vt 0.711524 -3.325551
vt 0.012734 -3.298231
vt 0.107547 -3.321381
vt 0.204267 -3.379422
vt 0.306356 -3.365241
vt 0.432591 -3.363366
vt 0.506886 -3.347156
vt -0.209229 -3.119339
vt 0.818429 -3.186455
vt -0.134366 -3.230131
vt -0.110339 -3.164950
vt 0.165264 -3.299272
vt 0.696071 -3.229270
vt -0.013794 -3.232326
vt 0.208663 -3.272607
vt 0.430885 -3.285804
vt 0.119388 -3.230824
vt 0.298565 -3.213457
vt 0.617825 -3.150030
vt 0.706200 -3.096776
vt 0.777163 -3.061281
vt -0.162009 -3.011718
vt -0.105681 -3.058871
vt -0.050047 -3.093758
vt 0.032904 -3.120660
vt 0.098764 -2.562636
vt 0.281743 -2.562953
vt 0.622881 -2.562226
vt 0.359359 -2.562849
vt 0.472519 -2.562477
vt -0.113218 -2.562081
vt 0.748287 -2.562150
vt -0.016886 -2.562097
vt 0.538772 -2.562614
vt 0.196606 -2.562655
vt 0.046371 -1.715114
vt 0.282013 -1.715136
vt 0.623221 -1.715136
vt 0.488372 -1.714996
vt -0.097799 -1.715150
vt 0.781810 -1.714819
vt 0.077786 0.990852
vt 0.282013 0.990852
vt 0.623221 0.990852
vt 0.469741 0.990958
vt -0.118724 0.990852
vt 0.769607 0.990852
vt 0.176675 0.990852
vt 0.203609 2.616138
vt 0.298639 2.611551
vt 0.395707 2.609760
vt 0.105779 2.624114
vt 0.548425 2.613554
vt 0.473769 2.610916
vt 0.400663 5.720379
vt 0.180819 -1.717510
vt 0.000000 0.000000
vt 1.000000 0.000000
vt 0.000000 1.000000
vt 1.000000 1.000000
vt 0.000000 0.000000
vt 1.000000 0.000000
vt 0.000000 1.000000
vt 1.000000 1.000000
vt 0.000000 0.000000
vt 1.000000 0.000000
vt 0.000000 1.000000
vt 1.000000 1.000000
vt 0.000000 0.000000
vt 1.000000 0.000000
vt 0.000000 1.000000
vt 1.000000 1.000000
s 1
usemtl tree_bark_rt_b_1
f 28/31/1 25/28/2 2/3/3
f 8/9/4 26/29/5 7/8/6
f 23/26/7 35/38/8 34/37/9 27/30/10
f 28/31/1 17/19/11 18/20/12 31/34/13
f 11/12/14 12/14/15 21/23/16
f 12/14/15 13/15/17 21/23/16
f 5/6/18 18/20/12 17/19/11 4/5/19
f 7/8/6 26/29/5 31/34/13 18/20/12
f 11/12/14 21/23/16 20/22/20
f 15/17/21 16/18/22 27/30/10
f 22/24/23 30/33/24 21/23/16 13/15/17
f 20/22/20 32/35/25 29/32/26 19/21/27
f 23/25/7 24/27/28 25/28/2
f 32/35/25 42/46/29 40/44/30 29/32/26
f 29/32/26 26/29/5 8/9/4 19/21/27
f 31/34/13 26/29/5 29/32/26
f 36/40/31 25/28/2 37/41/32
f 6/7/33 7/8/6 18/20/12
f 37/41/32 39/43/34 45/50/35 36/40/31
f 47/52/36 31/34/13 29/32/26 40/44/30
f 37/41/32 25/28/2 28/31/1 38/42/37
f 35/38/8 44/49/38 41/45/39 34/37/9
f 43/47/40 42/46/29 30/33/24 22/24/23
f 1/1/41 24/27/28 23/25/7
f 27/30/10 33/36/42 22/24/23
f 32/35/25 30/33/24 42/46/29
f 14/16/43 27/30/10 22/24/23
f 47/52/36 39/43/34 38/42/37 31/34/13
f 35/39/8 23/25/7 25/28/2 36/40/31
f 27/30/10 34/37/9 33/36/42
f 1/2/41 23/26/7 27/30/10 16/18/22
f 15/17/21 27/30/10 14/16/43
f 2/3/3 17/19/11 28/31/1
f 25/28/2 24/27/28 2/3/3
f 38/42/37 28/31/1 31/34/13
f 20/22/20 19/21/27 10/11/44 11/13/14
f 39/43/34 37/41/32 38/42/37
f 17/19/11 2/3/3 3/4/45
f 41/45/39 46/51/46 33/36/42 34/37/9
f 13/15/17 14/16/43 22/24/23
f 9/10/47 10/11/44 19/21/27 8/9/4
f 44/48/38 35/39/8 36/40/31 45/50/35
f 5/6/18 6/7/33 18/20/12
f 4/5/19 17/19/11 3/4/45
f 51/56/48 43/47/40 46/51/46
f 49/54/49 40/44/30 42/46/29
f 48/53/50 53/59/51 57/63/52 52/57/53
f 47/52/36 65/73/54 39/43/34
f 47/52/36 40/44/30 49/54/49 65/73/54
f 56/62/55 55/61/56 63/71/57 61/68/58
f 49/54/49 42/46/29 51/56/48
f 51/56/48 46/51/46 50/55/59
f 54/60/60 56/62/55 61/68/58 60/67/61
f 60/67/61 61/68/58 64/72/62
f 57/63/52 53/59/51 59/66/63 62/69/64
f 59/66/63 58/65/65 54/60/60 60/67/61
f 62/70/64 63/71/57 55/61/56 57/64/52
f 53/59/51 58/65/65 59/66/63
f 59/66/63 60/67/61 64/72/62
f 61/68/58 63/71/57 64/72/62
f 62/69/64 59/66/63 64/72/62
f 52/58/53 57/64/52 55/61/56 50/55/59
f 33/36/42 46/51/46 43/47/40 22/24/23
f 63/71/57 62/70/64 64/72/62
f 65/73/54 48/53/50 39/43/34
f 45/50/35 48/53/50 52/57/53
f 50/55/59 55/61/56 56/62/55 51/56/48
f 46/51/46 41/45/39 50/55/59
f 51/56/48 56/62/55 54/60/60 49/54/49
f 42/46/29 43/47/40 51/56/48
f 58/65/65 53/59/51 48/53/50 65/73/54
f 44/48/38 45/50/35 52/57/53
f 45/50/35 39/43/34 48/53/50
f 54/60/60 58/65/65 65/73/54 49/54/49
f 50/55/59 41/45/39 44/49/38 52/58/53
f 21/23/16 30/33/24 32/35/25 20/22/20
s 0
usemtl tree_rt_2_1
f 66/74/66 67/75/66 69/77/66 68/76/66
f 70/78/67 71/79/67 73/81/67 72/80/67
f 74/82/68 75/83/68 77/85/68 76/84/68
f 78/86/69 79/87/69 81/89/69 80/88/69
